<svg xmlns="http://www.w3.org/2000/svg" viewBox="0 0 431.92 55.44"><defs><style>.cls-1{fill:#231f20;}</style></defs><g id="Layer_2" data-name="Layer 2"><g id="Layer_1-2" data-name="Layer 1"><path class="cls-1" d="M4.64,54.18A9.6,9.6,0,0,1,1.26,50.8,9.09,9.09,0,0,1,0,46.08V3.6H7.78V45.86a1.85,1.85,0,0,0,1.8,1.8H42.26a1.63,1.63,0,0,0,1.23-.54,1.81,1.81,0,0,0,.5-1.26V3.6h7.85V46.08a9.09,9.09,0,0,1-1.26,4.72,9.6,9.6,0,0,1-3.38,3.38,9.09,9.09,0,0,1-4.72,1.26H9.36A9.09,9.09,0,0,1,4.64,54.18Z"/><path class="cls-1" d="M59.62,55.44V13.68H92.73A8.85,8.85,0,0,1,97.45,15a9.71,9.71,0,0,1,3.38,3.42A8.92,8.92,0,0,1,102.1,23v32.4H94.32V23.26a1.85,1.85,0,0,0-1.8-1.8H69.19a1.85,1.85,0,0,0-1.8,1.8V55.44Z"/><path class="cls-1" d="M109.58,7.78V0h7.78V7.78Zm0,47.66V13.68h7.78V55.44Z"/><path class="cls-1" d="M129.78,54.14a10,10,0,0,1-3.42-3.42,8.67,8.67,0,0,1-1.3-4.64V23a8.67,8.67,0,0,1,1.3-4.64A10,10,0,0,1,129.78,15a8.67,8.67,0,0,1,4.64-1.3h23.76A8.85,8.85,0,0,1,162.9,15a9.79,9.79,0,0,1,3.38,3.42A8.91,8.91,0,0,1,167.54,23v23a8.91,8.91,0,0,1-1.26,4.64,9.79,9.79,0,0,1-3.38,3.42,8.85,8.85,0,0,1-4.72,1.3H134.42A8.67,8.67,0,0,1,129.78,54.14Zm4.86-6.48H158a1.61,1.61,0,0,0,1.22-.54,1.81,1.81,0,0,0,.5-1.26V23.26a1.81,1.81,0,0,0-.5-1.26,1.61,1.61,0,0,0-1.22-.54H134.64a1.85,1.85,0,0,0-1.8,1.8v22.6a1.85,1.85,0,0,0,1.8,1.8Z"/><path class="cls-1" d="M173.66,55.44V13.68h33.12A8.85,8.85,0,0,1,211.5,15a9.79,9.79,0,0,1,3.38,3.42A8.91,8.91,0,0,1,216.14,23v32.4h-7.77V23.26a1.85,1.85,0,0,0-1.8-1.8H183.24a1.85,1.85,0,0,0-1.8,1.8V55.44Z"/><path class="cls-1" d="M243.36,55.44V11.38h-22V3.6h51.84v7.78h-22V55.44Z"/><path class="cls-1" d="M282.92,54.14a10,10,0,0,1-3.42-3.42,8.76,8.76,0,0,1-1.3-4.64V23a8.76,8.76,0,0,1,1.3-4.64A10,10,0,0,1,282.92,15a8.7,8.7,0,0,1,4.64-1.3h23.76A8.85,8.85,0,0,1,316,15a9.71,9.71,0,0,1,3.38,3.42A8.92,8.92,0,0,1,320.69,23V38.45H286v7.41a1.85,1.85,0,0,0,1.8,1.8h32.91v7.78H287.56A8.7,8.7,0,0,1,282.92,54.14Zm3.06-23h26.86V23.26a1.78,1.78,0,0,0-.51-1.26,1.59,1.59,0,0,0-1.22-.54H287.78a1.85,1.85,0,0,0-1.8,1.8Z"/><path class="cls-1" d="M328.24,55.44V0H336V30.67h9.36l15.62-17h8.93v1.44L352.29,34.56,369.93,54v1.44H361l-15.62-17H336v17Z"/><path class="cls-1" d="M379,54.14a10,10,0,0,1-3.42-3.42,8.76,8.76,0,0,1-1.3-4.64V45h7.78v.86a1.85,1.85,0,0,0,1.8,1.8h23.33a1.59,1.59,0,0,0,1.22-.54,1.78,1.78,0,0,0,.51-1.26V40.25a1.78,1.78,0,0,0-.51-1.26,1.59,1.59,0,0,0-1.22-.54H383.68A8.91,8.91,0,0,1,379,37.19a9.74,9.74,0,0,1-3.42-3.39,8.88,8.88,0,0,1-1.3-4.71V23a8.76,8.76,0,0,1,1.3-4.64A10,10,0,0,1,379,15a8.67,8.67,0,0,1,4.64-1.3h23.76a8.85,8.85,0,0,1,4.72,1.3,9.79,9.79,0,0,1,3.38,3.42A8.91,8.91,0,0,1,416.8,23v1.08H409v-.86a1.78,1.78,0,0,0-.51-1.26,1.59,1.59,0,0,0-1.22-.54H383.9a1.85,1.85,0,0,0-1.8,1.8v5.61a1.85,1.85,0,0,0,1.8,1.8h23.54a9.09,9.09,0,0,1,4.72,1.26,9.55,9.55,0,0,1,3.38,3.39A9,9,0,0,1,416.8,40v6a8.91,8.91,0,0,1-1.26,4.64,9.79,9.79,0,0,1-3.38,3.42,8.85,8.85,0,0,1-4.72,1.3H383.68A8.67,8.67,0,0,1,379,54.14Z"/><path class="cls-1" d="M424.15,55.44V47.66h7.77v7.78Z"/></g></g></svg>