<svg xmlns="http://www.w3.org/2000/svg" xmlns:xlink="http://www.w3.org/1999/xlink" viewBox="0 0 143.19 90.26"><defs><style>.cls-1{fill:none;}.cls-2{clip-path:url(#clip-path);}.cls-12,.cls-3,.cls-4{fill:#fff;}.cls-4{font-size:22.14px;font-family:JAVATA;}.cls-5{letter-spacing:-0.02em;}.cls-6{letter-spacing:-0.03em;}.cls-7{letter-spacing:-0.03em;}.cls-8{letter-spacing:-0.02em;}.cls-9{letter-spacing:-0.06em;}.cls-10{letter-spacing:-0.01em;}.cls-11{letter-spacing:0em;}.cls-12{font-size:7.31px;font-family:ArialMT, Arial;}.cls-13{letter-spacing:0.14em;}.cls-14{letter-spacing:0.12em;}.cls-15{letter-spacing:0.14em;}.cls-16{letter-spacing:0.14em;}</style><clipPath id="clip-path" transform="translate(-73.31 -326)"><rect class="cls-1" width="566.93" height="566.93"/></clipPath></defs><g id="Layer_2" data-name="Layer 2"><g id="Layer_1-2" data-name="Layer 1"><g class="cls-2"><path class="cls-3" d="M160.71,343s-12.34-.21-13,15,3.85,20.63,12.14,21.85c0,0-2-1.22-2-3V346.15a2.83,2.83,0,0,1,.48-1.59,3,3,0,0,1,2.35-1.56" transform="translate(-73.31 -326)"/><path class="cls-3" d="M162.23,366h9.28a3.06,3.06,0,0,1,3.06,3.16V371a8.33,8.33,0,0,1-7.81,8.29h-.14a.82.82,0,0,1-.85-.88v-9a3.49,3.49,0,0,0-3.54-3.44" transform="translate(-73.31 -326)"/><path class="cls-3" d="M175.17,352.51a6,6,0,1,1-.52-2.45,5.88,5.88,0,0,1,.52,2.45" transform="translate(-73.31 -326)"/><path class="cls-3" d="M167.82,343.3c-.24-.11,6.25.56,7.12,6.24.37,2.37-.23,3-1.46,3.33a3.88,3.88,0,0,1-4.78-4.3l0-.3a4,4,0,0,1,1-2.13c.52-.59.69-1.59-2-2.84" transform="translate(-73.31 -326)"/><path class="cls-3" d="M128.24,342.9a10,10,0,0,1,1.25.27A13.3,13.3,0,0,1,139.16,356v18.45a6,6,0,0,0,.83,3.08,3.8,3.8,0,0,0,3.32,2.08s-10.22,2.12-12.33-9.33c-.09-.5-.12-1-.19-1.47a22.78,22.78,0,0,1-.33-3.68V347a4.79,4.79,0,0,0-1.56-3.58,4.19,4.19,0,0,0-.66-.47" transform="translate(-73.31 -326)"/><path class="cls-3" d="M125.16,380.64H111.75V334.82a8.83,8.83,0,0,1,8.82-8.82h45.82v9.57h-5.16v-4.41H120.57a3.66,3.66,0,0,0-3.66,3.66v40.66h8.25Z" transform="translate(-73.31 -326)"/></g><text class="cls-4" transform="translate(0 75.96)"><tspan class="cls-5">U</tspan><tspan class="cls-6" x="13.51" y="0">n</tspan><tspan class="cls-7" x="28.42" y="0">i</tspan><tspan class="cls-8" x="34.47" y="0">o</tspan><tspan x="50.44" y="0">n </tspan><tspan class="cls-8" x="73.09" y="0">G</tspan><tspan class="cls-9" x="88.55" y="0">r</tspan><tspan class="cls-8" x="100.75" y="0">o</tspan><tspan class="cls-10" x="116.71" y="0">u</tspan><tspan class="cls-11" x="130" y="0">p</tspan></text><text class="cls-12" transform="translate(1.7 87.89)"><tspan class="cls-13">FO</tspan><tspan class="cls-14" x="12.18" y="0">R </tspan><tspan class="cls-15" x="21.26" y="0">E</tspan><tspan class="cls-16" x="27.15" y="0">N</tspan><tspan class="cls-13" x="33.43" y="0">GI</tspan><tspan class="cls-16" x="43.18" y="0">N</tspan><tspan class="cls-13" x="49.47" y="0">EE</tspan><tspan class="cls-16" x="61.25" y="0">R</tspan><tspan class="cls-13" x="67.53" y="0">I</tspan><tspan class="cls-16" x="70.58" y="0">N</tspan><tspan class="cls-14" x="76.87" y="0">G </tspan><tspan class="cls-13" x="86.35" y="0">I</tspan><tspan class="cls-16" x="89.4" y="0">NDU</tspan><tspan class="cls-15" x="108.25" y="0">ST</tspan><tspan class="cls-16" x="119.62" y="0">R</tspan><tspan class="cls-13" x="125.91" y="0">IA</tspan><tspan x="134.85" y="0">L</tspan></text></g></g></svg>